<?xml version="1.0" encoding="utf-8"?>
<!-- Generator: Adobe Illustrator 24.2.3, SVG Export Plug-In . SVG Version: 6.00 Build 0)  -->
<svg version="1.1" id="Layer_1" xmlns="http://www.w3.org/2000/svg" xmlns:xlink="http://www.w3.org/1999/xlink" x="0px" y="0px"
	 viewBox="0 0 1200 800" style="enable-background:new 0 0 1200 800;" xml:space="preserve">
<style type="text/css">
	.st0{font-family:'MyriadPro-Regular';}
	.st1{font-size:40px;}
	.st2{fill:none;stroke:#000000;stroke-width:2.6667;stroke-linejoin:round;stroke-miterlimit:10;}
</style>
<g transform="translate(1086,657.6667)">
	<text transform="matrix(1 0 0 1 0 16)" class="st0 st1">1e-20</text>
</g>
<g transform="translate(621,684.8333)">
	<text transform="matrix(1 0 0 1 0 16)" class="st0 st1">1e-10</text>
</g>
<g transform="translate(295.5,712)">
	<text transform="matrix(1 0 0 1 0 16)" class="st0 st1">0.001</text>
</g>
<g>
	<g transform="matrix(0.5,0,0,0.4998,156,60)">
		<g>
			<defs>
				<polygon id="SVGID_1_" points="0,1087 18.8,1087 37.6,1087 56.4,1087 75.2,1087 93.9,1087 112.7,1087 131.5,1087 150.3,1087 
					169.1,1087 187.9,1087 206.7,1087 225.5,1087 244.2,1087 263,1087 281.8,1087 300.6,1087 319.4,1087 338.2,1087 357,1087 
					375.8,1087 394.5,1087 413.3,1087 432.1,1087 450.9,1087 469.7,1087 488.5,1087 507.3,1087 526.1,1087 544.8,1087 563.6,1087 
					582.4,1087 601.2,1087 620,1087 638.8,1087 657.6,1087 676.4,1087 695.2,1087 713.9,1087 732.7,1087 751.5,1087 770.3,1087 
					789.1,1087 807.9,1087 826.7,1087 845.5,1087 864.2,1087 883,1087 901.8,1087 920.6,1087 939.4,1087 958.2,1087 977,1087 
					995.8,1087 1014.5,1087 1033.3,1087 1052.1,1087 1070.9,1087 1089.7,1087 1108.5,1087 1127.3,1087 1146.1,1087 1164.8,1087 
					1183.6,1087 1202.4,1087 1221.2,1087 1240,1087 1258.8,1087 1277.6,1087 1296.4,1087 1315.2,1087 1333.9,1087 1352.7,1087 
					1371.5,1087 1390.3,1087 1409.1,1087 1427.9,1087 1446.7,1087 1465.5,1087 1484.2,1087 1503,1087 1521.8,1087 1540.6,1087 
					1559.4,1087 1578.2,1087 1597,1087 1615.8,1087 1634.5,1087 1653.3,1087 1672.1,1087 1690.9,1087 1709.7,1087 1728.5,1087 
					1747.3,1087 1766.1,1087 1784.8,1087 1803.6,1087 1822.4,1087 1841.2,1087 1860,1087 1860,946.2 1841.2,946.2 1822.4,946.2 
					1803.6,946.2 1784.8,946.2 1766.1,946.2 1747.3,946.2 1728.5,946.2 1709.7,946.2 1690.9,946.2 1672.1,946.2 1653.3,946.2 
					1634.5,946.2 1615.8,946.2 1597,946.2 1578.2,946.2 1559.4,946.2 1540.6,946.2 1521.8,946.2 1503,946.2 1484.2,946.2 
					1465.5,946.2 1446.7,946.2 1427.9,946.2 1409.1,946.2 1390.3,946.2 1371.5,946.2 1352.7,946.2 1333.9,946.2 1315.2,946.2 
					1296.4,946.2 1277.6,946.2 1258.8,946.2 1240,946.2 1221.2,946.2 1202.4,946.2 1183.6,946.2 1164.8,946.2 1146.1,946.2 
					1127.3,946.2 1108.5,946.2 1089.7,946.2 1070.9,946.2 1052.1,946.2 1033.3,946.2 1014.5,946.2 995.8,946.2 977,946.2 
					958.2,946.2 939.4,946.2 920.6,946.2 901.8,946.2 883,946.2 864.2,946.2 845.5,946.2 826.7,946.2 807.9,946.2 789.1,946.2 
					770.3,946.2 751.5,946.2 732.7,946.2 713.9,946.2 695.2,946.2 676.4,946.2 657.6,946.2 638.8,946.2 620,946.2 601.2,946.2 
					582.4,946.2 563.6,946.2 544.8,946.2 526.1,946.2 507.3,946.2 488.5,946.2 469.7,946.2 450.9,946.2 432.1,946.2 413.3,946.2 
					394.5,946.2 375.8,946.2 357,946.2 338.2,946.2 319.4,946.2 300.6,946.2 281.8,946.2 263,946.2 244.2,946.2 225.5,946.2 
					206.7,946.2 187.9,946.2 169.1,946.2 150.3,946.2 131.5,946.2 112.7,946.2 93.9,946.2 75.2,946.2 56.4,946.2 37.6,946.2 
					18.8,946.2 0,946.2 				"/>
			</defs>
			<clipPath id="SVGID_2_">
				<use xlink:href="#SVGID_1_"  style="overflow:visible;"/>
			</clipPath>
			<g style="clip-path:url(#SVGID_2_);enable-background:new    ;">
				
					<image style="overflow:visible;" width="1860" height="1087" xlink:href="F3B3B5FB.png"  transform="matrix(1 0 0 0.1296 0 946.1581)">
				</image>
			</g>
		</g>
	</g>
	<g>
		<line class="st2" x1="1086" y1="630.5" x2="1086" y2="603.3"/>
	</g>
	<g>
		<line class="st2" x1="621" y1="630.5" x2="621" y2="603.3"/>
	</g>
	<g>
		<line class="st2" x1="295.5" y1="630.5" x2="295.5" y2="603.3"/>
	</g>
	<g>
		<line class="st2" x1="156" y1="630.5" x2="156" y2="603.3"/>
	</g>
</g>
<g transform="translate(156,739.1667)">
	<text transform="matrix(1 0 0 1 0 16)" class="st0 st1">0.05</text>
</g>
</svg>
